# xmcd
#
# Track frame offsets:
#	150
#	18807
#	40692
#	57098
#	73396
#	91738
#	108501
#	125565
#	139724
#	154824
#	168624
#	183597
#	197819
#
# Disc length: 2892 seconds
#
# Revision: 1
# Processed by: cddbd v1.5.1PL0 Copyright (c) Steve Scherf et al.
# Submitted via: audiograbber 1.83.01
#
DISCID=b30b4a0d
DTITLE=Gökhan Birben - ASA SEVDAM
DYEAR=2005
DGENRE=Karadeniz
TTITLE0=Karadenir Karasun
TTITLE1=Yüksek Daglara Kar Var
TTITLE2=Tulumci
TTITLE3=Alacali Kus
TTITLE4=Asiye
TTITLE5=Derrule
TTITLE6=Oy Daglarum
TTITLE7=Divane Asuk Gibi
TTITLE8=Haba
TTITLE9=Asa Sevdam
TTITLE10=Sis Dagi
TTITLE11=Dere Beni Bogamaz
TTITLE12=Haso Cemozutes
EXTD=
EXTT0=
EXTT1=
EXTT2=
EXTT3=
EXTT4=
EXTT5=
EXTT6=
EXTT7=
EXTT8=
EXTT9=
EXTT10=
EXTT11=
EXTT12=
PLAYORDER=
